# Blender v2.61 (sub 0) OBJ File: ''
# www.blender.org
v 1.630619 0.007326 0.583976
v -0.007060 0.007326 1.732021
v -0.814634 -1.414195 0.580021
v 0.823045 -1.414194 -0.568024
v 0.814634 1.414195 -0.580020
v -0.823045 1.414194 0.568024
v -1.630619 -0.007326 -0.583976
v 0.007060 -0.007326 -1.732021
vn 0.407992 -0.703434 0.581998
vn -0.407992 0.703434 -0.581998
vn 0.403787 0.710760 0.576000
vn -0.818840 -0.000000 0.574022
vn -0.403787 -0.710760 -0.576000
vn 0.818840 0.000000 -0.574023
s off
f 1//1 2//1 3//1
f 1//1 3//1 4//1
f 5//2 8//2 7//2
f 5//2 7//2 6//2
f 1//3 5//3 6//3
f 1//3 6//3 2//3
f 2//4 6//4 7//4
f 2//4 7//4 3//4
f 3//5 7//5 8//5
f 3//5 8//5 4//5
f 5//6 1//6 4//6
f 5//6 4//6 8//6