# Blender v2.92.0 OBJ File: ''
# www.blender.org
mtllib treeLeaf.mtl
o GeoSphere016_Mesh.001
v -0.182020 10.645970 0.493874
v 0.996105 9.908607 0.184486
v -0.482845 9.908607 -0.721786
v 1.829119 7.985626 0.484674
v 0.622585 8.848564 -1.612866
v -1.095562 7.985626 -1.525931
v 1.725712 5.631005 0.067496
v 1.371405 4.822377 -1.222792
v 0.331736 4.822377 -1.864594
v -0.711658 5.631005 -1.798086
v -0.772970 9.908607 1.841427
v -1.590706 8.848564 0.527481
v -1.022055 7.985624 2.595493
v -1.353434 4.822377 -0.880514
v -1.415857 4.822375 0.677696
v -0.614206 5.631004 2.265591
v 0.557564 8.848563 2.063159
v 0.508158 4.822374 2.256830
v 1.338806 4.822375 1.340421
v 0.531309 3.205763 0.146032
vt 0.666667 0.999890
vt 0.500000 0.797275
vt 0.833333 0.797275
vt 0.500000 0.594551
vt 0.666667 0.674859
vt 0.833333 0.594551
vt 0.500000 0.391827
vt 0.605594 0.315266
vt 0.727739 0.315266
vt 0.833333 0.391827
vt -0.000000 0.999890
vt -0.166667 0.797275
vt 0.166667 0.797275
vt 1.000000 0.674859
vt 0.000000 0.674859
vt 0.166667 0.594551
vt 0.938927 0.315266
vt -0.061073 0.315266
vt 0.061073 0.315266
vt 0.166667 0.391827
vt 0.333333 0.999890
vt 0.333333 0.674859
vt 0.272260 0.315266
vt 0.394406 0.315266
vt 0.500000 0.066686
vn 0.3357 0.7663 -0.5479
vn 0.8722 0.3200 -0.3700
vn 0.3246 0.7837 -0.5296
vn -0.2657 0.4428 -0.8564
vn 0.9635 0.0051 -0.2678
vn 0.8811 0.1195 -0.4576
vn 0.5252 0.0153 -0.8508
vn -0.0846 0.0683 -0.9941
vn 0.0293 0.1195 -0.9924
vn -0.8555 0.5087 -0.0968
vn -0.8259 0.4203 -0.3758
vn -0.7364 0.6714 -0.0834
vn -0.8997 0.2553 0.3540
vn -0.7928 -0.0591 -0.6066
vn -0.9689 0.0288 -0.2458
vn -0.9982 -0.0448 -0.0400
vn -0.9671 -0.0326 0.2523
vn -0.8229 -0.2162 0.5255
vn 0.5375 0.6180 0.5738
vn 0.1228 0.3485 0.9292
vn 0.4808 0.7109 0.5133
vn 0.8059 0.4150 0.4223
vn -0.1045 -0.1557 0.9823
vn 0.2983 0.0422 0.9535
vn 0.7407 0.0232 0.6714
vn 0.7895 0.0433 0.6123
vn 0.9671 -0.0850 0.2400
vn 0.9090 -0.4167 0.0116
vn 0.5600 -0.6548 0.5076
vn 0.8912 -0.4535 0.0113
vn 0.3726 -0.7048 -0.6037
vn -0.4742 -0.6644 0.5777
vn -0.4445 -0.7135 0.5416
vn -0.6427 -0.7657 -0.0257
vn -0.3332 -0.7507 -0.5705
vn -0.4363 -0.5015 -0.7471
g GeoSphere016_Mesh.001_GeoSphere016_Mesh.001_05_-_Default.004
usemtl 05_-_Default.004
s 1
f 1/1/1 2/2/1 3/3/1
f 2/2/2 4/4/2 5/5/2
f 2/2/3 5/5/3 3/3/3
f 3/3/4 5/5/4 6/6/4
f 4/4/5 7/7/5 8/8/5
f 4/4/6 8/8/6 5/5/6
f 5/5/7 8/8/7 9/9/7
f 5/5/8 9/9/8 6/6/8
f 6/6/9 9/9/9 10/10/9
f 1/11/10 3/12/10 11/13/10
f 3/3/11 6/6/11 12/14/11
f 3/12/12 12/15/12 11/13/12
f 11/13/13 12/15/13 13/16/13
f 6/6/14 10/10/14 14/17/14
f 6/6/15 14/17/15 12/14/15
f 12/15/16 14/18/16 15/19/16
f 12/15/17 15/19/17 13/16/17
f 13/16/18 15/19/18 16/20/18
f 1/21/19 11/13/19 2/2/19
f 11/13/20 13/16/20 17/22/20
f 11/13/21 17/22/21 2/2/21
f 2/2/22 17/22/22 4/4/22
f 13/16/23 16/20/23 18/23/23
f 13/16/24 18/23/24 17/22/24
f 17/22/25 18/23/25 19/24/25
f 17/22/26 19/24/26 4/4/26
f 4/4/27 19/24/27 7/7/27
f 7/7/28 19/24/28 8/8/28
f 19/24/29 18/23/29 20/25/29
f 19/24/30 20/25/30 8/8/30
f 8/8/31 20/25/31 9/9/31
f 18/23/32 16/20/32 15/19/32
f 18/23/33 15/19/33 20/25/33
f 20/25/34 15/19/34 14/18/34
f 20/25/35 14/17/35 9/9/35
f 9/9/36 14/17/36 10/10/36
